<svg xmlns="http://www.w3.org/2000/svg" height="1024" preserveAspectRatio="none" style="display: block;" version="1.1" viewBox="0 0 2048 2048" width="1024">
<path d="M 774.639 540.337 C 806.002 539.822 823.367 564.408 818.835 594.264 L 959.727 735.935 C 977.274 753.484 995.21 772.46 1013.16 789.403 C 1031.19 790.808 1061.72 789.837 1080.99 790.148 C 1092.4 797.325 1121.19 827.569 1132.93 838.827 L 1202.22 906.543 C 1226.08 929.669 1251.2 953.288 1274.35 976.981 L 1289.88 976.993 C 1299.01 968.981 1308.67 958.115 1317.67 949.509 C 1375.19 894.497 1428.94 834.169 1486.46 779.285 C 1499.5 778.434 1519.67 778.999 1533.23 779.011 C 1557.42 779.033 1582.66 778.739 1606.74 779.558 C 1623.13 760.618 1653.45 732.305 1672.26 713.863 C 1703.09 683.645 1737.35 645.285 1769.08 617.428 C 1766.23 590.058 1778.03 566.293 1808.06 564.512 C 1819.59 563.794 1830.91 567.889 1839.31 575.823 C 1864.62 599.692 1852.56 641.675 1818.1 647.931 C 1814.37 648.609 1808.91 648.349 1805.02 648.316 C 1744.83 707.115 1686.73 769.283 1626.66 827.829 L 1507.58 827.951 C 1485.93 847.202 1462.42 872.399 1441.73 893.152 C 1403.36 931.165 1365.46 969.64 1328.02 1008.57 C 1327.95 1014.69 1327.91 1021.56 1326.75 1027.55 C 1321.74 1053.52 1298.84 1065.53 1274.01 1060.59 C 1249.74 1054.68 1244.29 1036.62 1242.01 1014.6 C 1182.93 954.483 1122.6 895.599 1061.06 837.988 C 1047.37 836.17 1006.26 837.013 990.705 836.977 L 990.431 836.766 C 978.905 828.08 952.776 798.238 940.108 786.108 C 885.216 733.551 833.198 677.037 778.449 624.326 C 771.357 629.641 759.622 642.211 752.746 649.175 L 711.346 691.104 L 585.57 817.841 C 545.563 819.392 495.743 818.015 454.963 817.931 C 437.899 832.377 413.716 858.257 397.367 874.618 L 283.535 989.112 C 283.153 1001.72 282.929 1014.47 274.159 1024.46 C 235.515 1068.49 172.766 1013.57 208.694 969.304 C 218.903 956.726 234.146 955.715 249.276 955.274 C 263.166 940.29 280.995 923.409 295.675 908.736 L 359.752 843.887 L 405.424 797.936 C 415.406 787.795 423.991 778.209 434.754 768.859 C 446.314 767.755 467.987 768.366 480.468 768.374 C 509.215 768.3 537.962 768.487 566.706 768.936 C 571.071 763.344 579.527 755.445 584.653 750.047 C 598.172 735.809 612.475 722.197 626.34 708.332 L 735.681 597.699 C 735.052 592.775 733.738 585.665 734.247 580.858 C 736.702 557.681 752.849 543.631 774.639 540.337 z" fill="rgb(45,62,236)" transform="translate(0,0)"></path>
<path d="M 1217.41 1206.12 C 1300.01 1200.15 1371.85 1262.18 1377.98 1344.77 C 1384.1 1427.36 1322.2 1499.31 1239.62 1505.59 C 1156.83 1511.88 1084.65 1449.78 1078.51 1366.98 C 1072.37 1284.18 1134.59 1212.11 1217.41 1206.12 z M 1238.41 1470.87 C 1301.48 1465.3 1348.19 1409.79 1342.9 1346.69 C 1337.61 1283.59 1282.31 1236.64 1219.19 1241.65 C 1155.67 1246.68 1108.35 1302.41 1113.67 1365.91 C 1118.99 1429.41 1174.93 1476.48 1238.41 1470.87 z" fill="rgb(45,62,236)" transform="translate(0,0)"></path>
<path d="M 720.998 1191.61 C 728.705 1190.83 740.782 1191.58 748.849 1191.59 C 760.885 1191.6 772.942 1191.31 784.947 1191.38 C 786.445 1294.89 786.479 1398.41 785.05 1501.92 C 764.304 1501.38 743.553 1501.09 722.801 1501.06 C 722.886 1488.24 723.107 1476.87 721.952 1464.1 C 702.518 1505.61 657.927 1512.68 618.029 1498.03 C 560.958 1474.54 537.684 1399.06 557.987 1343.78 C 567.92 1316.52 588.224 1294.29 614.474 1281.94 C 637.497 1271.31 662.425 1268.46 686.1 1278.07 C 706.22 1286.23 713.451 1295 722.123 1314.1 C 721.206 1273.28 720.831 1232.45 720.998 1191.61 z M 677.407 1443.57 C 707.582 1438.97 728.328 1410.8 723.759 1380.62 C 719.19 1350.44 691.035 1329.67 660.851 1334.21 C 630.628 1338.75 609.824 1366.95 614.398 1397.17 C 618.973 1427.39 647.192 1448.17 677.407 1443.57 z" fill="rgb(45,62,236)" transform="translate(0,0)"></path>
<path d="M 1531.74 1273.37 C 1541.96 1271.66 1557.38 1272.99 1567.53 1275.1 C 1596.44 1281.32 1621.76 1298.61 1638.07 1323.27 C 1671.29 1374.42 1660.08 1453.91 1606.16 1487.55 C 1579.72 1503.9 1547.89 1509.14 1517.61 1502.11 C 1489.33 1495.3 1474 1480.31 1459.36 1456.22 C 1461.29 1467.95 1462.12 1483.12 1462.37 1494.93 C 1461.87 1525.52 1462.9 1556.12 1462.31 1586.53 C 1450.22 1586.56 1438.13 1586.46 1426.05 1586.22 C 1424.38 1549.08 1425.78 1499.66 1425.78 1461.27 L 1425.36 1276.84 C 1438.02 1276.55 1450.69 1276.48 1463.36 1276.64 C 1463.06 1290.78 1460.37 1305.11 1460.02 1320.31 C 1462.36 1315.01 1465.3 1310.01 1468.78 1305.38 C 1485.3 1283.69 1506.07 1276.85 1531.74 1273.37 z M 1546.93 1471.86 C 1559.71 1470.53 1570.28 1468.75 1581.77 1462.51 C 1629.86 1436.37 1629.99 1352.74 1589.22 1320.13 C 1575.14 1308.87 1552.08 1302.92 1534.18 1305.37 C 1520.87 1306.97 1510.92 1308.7 1498.96 1315.15 C 1447.66 1342.78 1447.91 1422.33 1492.52 1455.92 C 1509.62 1468.8 1526 1472.22 1546.93 1471.86 z" fill="rgb(45,62,236)" transform="translate(0,0)"></path>
<path d="M 1541.42 593.118 C 1553.86 591.691 1566.35 595.41 1575.6 603.945 C 1584.09 611.745 1588.98 622.715 1589.11 634.249 C 1589.47 662.371 1568.29 676.436 1542.21 676.31 C 1523.89 695.785 1502.14 716.475 1483.01 735.602 L 1403.88 815.452 C 1386.62 832.673 1367.36 850.752 1351 868.568 C 1350.55 897.072 1330.28 918.489 1300.85 913.529 C 1290.1 911.829 1280.5 905.876 1274.19 897.014 C 1267.6 887.58 1265.99 876.15 1267.94 864.995 C 1261.38 857.793 1253.27 849.731 1246.12 843.063 C 1208.7 808.11 1173.74 768.1 1136.28 733.51 C 1115.65 732.407 1081.62 732.796 1060.81 733.579 C 1055.07 739.537 1051.8 743.357 1044.62 747.503 C 995.691 770.418 957.904 700.883 1002.49 672.377 C 1024.39 658.378 1048.57 665.705 1062.36 687.936 C 1094.82 687.09 1127.29 687.041 1159.76 687.787 C 1206.1 735.445 1255.29 782.429 1302.08 830.004 C 1308.54 829.782 1314.91 830.041 1321.37 830.227 C 1328.85 821.641 1338.71 812.461 1346.86 804.135 C 1364.93 785.511 1383.19 767.07 1401.63 748.813 C 1436.69 713.928 1470.38 678.923 1505.86 644.031 C 1503.76 616.037 1513.28 599.687 1541.42 593.118 z" fill="rgb(45,62,236)" transform="translate(0,0)"></path>
<path d="M 746.468 692.334 C 769.155 690.466 788.848 704.163 792.571 727.064 C 793.443 732.425 793.241 738.59 793.262 744.042 C 803.38 751.99 818.735 768.3 828.406 777.921 C 850.609 799.963 872.688 822.13 894.64 844.422 C 901.704 851.559 918.117 868.983 925.411 874.553 C 947.264 875.459 978.803 875.162 1000.71 874.451 C 1019.98 857.441 1045.84 854.145 1064.4 875.214 C 1089.13 903.284 1063.78 951.353 1026.2 945.705 C 1010.8 943.39 1002.48 933.764 993.649 922.125 C 970.884 920.124 925.088 921.39 901.416 921.612 C 894.5 915.289 888.166 908.736 881.52 902.159 C 839.288 860.367 798.755 816.085 755.711 775.148 C 755.445 775.137 755.18 775.126 754.915 775.114 L 753.588 775.085 C 750.703 774.994 747.776 774.539 745.506 776.587 C 728.415 792.007 712.166 809.332 695.887 825.585 C 651.133 870.294 606.634 915.257 562.392 960.473 C 562.334 972.901 561.627 985.778 553.003 995.484 C 536.694 1013.84 509.543 1016.3 491.398 999.903 C 482.541 992.029 477.304 980.863 476.915 969.017 C 476.648 957.496 481.017 946.351 489.044 938.082 C 500.448 926.444 512.628 924.974 527.678 924.977 C 554.554 900.15 585.765 866.216 612.055 840.072 L 671.953 779.922 C 684.81 767.106 698.783 754.141 710.769 740.633 C 713.011 716.178 719.582 698.118 746.468 692.334 z" fill="rgb(45,62,236)" transform="translate(0,0)"></path>
<path d="M 925.578 1273.38 C 933.487 1271.97 944.924 1272.75 952.926 1273.77 C 1022.73 1282.72 1052.51 1341.07 1043.56 1406.54 C 1025.34 1407.14 1003.78 1406.41 985.337 1406.4 L 883.848 1407.07 C 885.953 1417.3 890.016 1426.34 897.34 1433.92 C 906.595 1443.4 919.278 1448.77 932.532 1448.8 C 952.466 1448.99 963.28 1440.32 976.253 1427.24 C 994.845 1426.36 1019.6 1427.06 1038.65 1427.08 C 1038.93 1436.22 1027.81 1453.15 1022.65 1460.74 C 987.173 1512.87 911.636 1517.74 862.569 1481.9 C 813.378 1445.97 804.072 1362.92 843.836 1315.85 C 868.11 1287.12 888.519 1277.66 925.578 1273.38 z M 884.229 1366.68 C 900.758 1367.57 922.501 1367.02 939.5 1367.04 C 953.791 1367.05 968.966 1367.01 983.233 1367.57 C 980.874 1358.98 979.998 1353.17 974.066 1346.01 C 962.637 1332.2 948.305 1326.62 930.948 1326.42 C 903.31 1329.55 892.465 1341 884.229 1366.68 z" fill="rgb(45,62,236)" transform="translate(0,0)"></path>
<path d="M 195.756 1197.39 C 206.86 1196.84 219.244 1196.97 230.388 1197.1 C 292.794 1197.86 356.1 1195.65 418.425 1197.73 C 419.74 1211.36 418.984 1240.78 419.057 1255.58 C 396.366 1254.39 364.901 1255.21 341.514 1255.2 C 340.426 1273.36 341.135 1297.71 341.149 1316.54 L 341.189 1426.5 C 341.241 1449.14 342.456 1480.02 341.293 1501.89 C 318.953 1501.6 296.609 1501.66 274.271 1502.07 C 274.75 1420.77 275.078 1336.16 273.973 1254.97 C 255.529 1253.36 216.286 1255.25 195.334 1254.96 C 195.19 1239.49 194.611 1211.25 195.756 1197.39 z" fill="rgb(45,62,236)" transform="translate(0,0)"></path>
<path d="M 1764.79 1274.37 C 1766.61 1274.21 1768.45 1274.12 1770.28 1274.1 C 1816.67 1273.67 1851.8 1296.59 1851.08 1346.18 C 1839.02 1345.16 1826.34 1345.24 1814.2 1345.07 C 1809.86 1315.9 1799.97 1304.96 1769.43 1305.07 C 1747.79 1305.15 1726.27 1320.61 1729.42 1344.1 C 1733.09 1371.5 1779.4 1375.38 1800.84 1381.32 C 1846.48 1393.97 1870.1 1440.8 1836.82 1480.19 C 1822.01 1497.66 1802.38 1503.36 1779.57 1505.19 C 1756.6 1505.26 1737.98 1502.02 1718.38 1488.87 C 1698.47 1475.51 1692.85 1457.05 1688.8 1434.74 C 1701.32 1435.05 1713.83 1435.15 1726.35 1435.05 C 1727.78 1446.15 1730.49 1454.96 1739.54 1462.88 C 1755.79 1477.1 1793.49 1477.77 1807.61 1460.26 C 1812.24 1454.52 1816.54 1441.68 1815.04 1434.01 C 1809.43 1405.38 1771.51 1405.08 1749.4 1397.94 C 1724.85 1390.92 1695.16 1377.68 1692.44 1348.36 C 1688.32 1304.1 1725.87 1278.43 1764.79 1274.37 z" fill="rgb(45,62,236)" transform="translate(0,0)"></path>
<path d="M 451.994 1273.18 C 473.172 1273.03 494.787 1273.31 515.994 1273.4 C 515.845 1347.88 517.63 1427.75 515.736 1501.68 C 498.653 1501.5 467.268 1502.63 451.988 1501.28 L 451.994 1273.18 z" fill="rgb(45,62,236)" transform="translate(0,0)"></path>
<path d="M 479.487 1174.82 C 501.287 1172.45 520.954 1188.01 523.671 1209.76 C 526.387 1231.52 511.148 1251.44 489.436 1254.5 C 475.077 1256.53 460.741 1250.66 451.929 1239.14 C 443.116 1227.63 441.197 1212.25 446.907 1198.93 C 452.618 1185.6 465.071 1176.38 479.487 1174.82 z" fill="rgb(45,62,236)" transform="translate(0,0)"></path>
<metadata><recraft-signature>{"signed_by": "recraft", "signature_b64": "qrSh6CpLDPVfOpL/H+AfV4t7/nQrP6mgXPjUZqerhYNFPXqAygg8RHyfeCK+lcESOHcEcUkk3152/Yt/wOgJDQ==", "signing_algo": "Ed25519", "generation_timestamp": 1774199189, "identifier": "bd231c6f-2eca-4e71-9281-d8403ef3041d"}</recraft-signature></metadata></svg>