<svg xmlns="http://www.w3.org/2000/svg" viewBox="0 0 474 114" width="474" height="114">
  <rect width="100%" height="100%" fill="#1a1a1a"/>
  <g fill="#FFFFFF">
    <path d="M 112 16 L 111 16 Z" fill="currentColor"/>
<path d="M 111 17 L 111 16 Z" fill="currentColor"/>
<path d="M 112 18 L 111 16 Z" fill="currentColor"/>
<path d="M 114 19 L 111 16 Z" fill="currentColor"/>
<path d="M 115 20 L 111 16 Z" fill="currentColor"/>
<path d="M 118 21 L 111 16 Z" fill="currentColor"/>
<path d="M 120 22 L 111 16 Z" fill="currentColor"/>
<path d="M 122 23 L 111 16 Z" fill="currentColor"/>
<path d="M 123 24 L 111 16 Z" fill="currentColor"/>
<path d="M 175 24 L 174 23 Z" fill="currentColor"/>
<path d="M 125 25 L 126 25 Z" fill="currentColor"/>
<path d="M 125 26 L 126 25 Z" fill="currentColor"/>
<path d="M 127 26 L 129 25 L 126 25 Z" fill="currentColor"/>
<path d="M 124 27 L 129 26 L 126 25 Z" fill="currentColor"/>
<path d="M 122 28 L 129 26 L 126 25 Z" fill="currentColor"/>
<path d="M 120 29 L 129 26 L 126 25 Z" fill="currentColor"/>
<path d="M 118 30 L 129 26 L 126 25 Z" fill="currentColor"/>
<path d="M 116 31 L 129 26 L 126 25 Z" fill="currentColor"/>
<path d="M 162 31 L 145 30 L 130 34 L 83 63 L 58 73 L 24 73 L 32 78 L 47 81 L 65 81 L 85 76 L 149 39 L 179 38 L 173 33 L 163 31 Z" fill="currentColor"/>
<path d="M 114 32 L 129 26 L 126 25 Z" fill="currentColor"/>
<path d="M 112 33 L 129 26 L 126 25 Z" fill="currentColor"/>
<path d="M 111 34 L 129 26 L 126 25 Z" fill="currentColor"/>
<path d="M 109 35 L 129 26 L 126 25 Z" fill="currentColor"/>
<path d="M 108 36 L 129 26 L 126 25 Z" fill="currentColor"/>
<path d="M 298 36 L 290 36 L 290 53 L 275 52 L 266 60 L 266 82 L 276 89 L 299 86 L 299 36 Z" fill="currentColor"/>
<path d="M 106 37 L 129 26 L 126 25 Z" fill="currentColor"/>
<path d="M 256 37 L 249 38 L 250 45 L 258 44 L 257 37 Z" fill="currentColor"/>
<path d="M 105 38 L 129 26 L 126 25 Z" fill="currentColor"/>
<path d="M 368 38 L 352 41 L 345 54 L 347 79 L 353 86 L 361 89 L 380 86 L 388 73 L 388 53 L 385 45 L 378 39 L 369 38 Z" fill="currentColor"/>
<path d="M 103 39 L 129 26 L 126 25 Z" fill="currentColor"/>
<path d="M 244 39 L 205 38 L 205 45 L 220 45 L 220 88 L 229 88 L 229 45 L 244 45 L 244 40 Z" fill="currentColor"/>
<path d="M 102 40 L 129 26 L 126 25 Z" fill="currentColor"/>
<path d="M 100 41 L 129 26 L 126 25 Z" fill="currentColor"/>
<path d="M 99 42 L 129 26 L 126 25 Z" fill="currentColor"/>
<path d="M 97 43 L 129 26 L 126 25 Z" fill="currentColor"/>
<path d="M 96 44 L 129 26 L 126 25 Z" fill="currentColor"/>
<path d="M 363 44 L 374 45 L 380 57 L 378 77 L 372 82 L 359 81 L 354 73 L 354 52 L 358 46 L 363 45 Z" fill="currentColor"/>
<path d="M 94 45 L 129 26 L 126 25 Z" fill="currentColor"/>
<path d="M 93 46 L 112 33 L 129 26 L 126 25 Z" fill="currentColor"/>
<path d="M 178 46 L 162 45 L 146 49 L 106 75 L 83 85 L 59 89 L 44 88 Z" fill="currentColor"/>
<path d="M 91 47 L 112 33 L 129 26 L 126 25 Z" fill="currentColor"/>
<path d="M 182 47 L 152 47 L 89 83 L 70 88 L 44 88 Z" fill="currentColor"/>
<path d="M 90 48 L 112 33 L 129 26 L 126 25 Z" fill="currentColor"/>
<path d="M 186 48 L 178 45 L 152 47 L 89 83 L 70 88 L 44 88 Z" fill="currentColor"/>
<path d="M 88 49 L 112 33 L 129 26 L 126 25 Z" fill="currentColor"/>
<path d="M 188 49 L 178 45 L 152 47 L 89 83 L 70 88 L 44 88 Z" fill="currentColor"/>
<path d="M 86 50 L 112 33 L 129 26 L 126 25 Z" fill="currentColor"/>
<path d="M 190 50 L 178 45 L 152 47 L 89 83 L 70 88 L 44 88 Z" fill="currentColor"/>
<path d="M 85 51 L 112 33 L 129 26 L 126 25 Z" fill="currentColor"/>
<path d="M 192 51 L 178 45 L 156 46 L 136 54 L 111 72 L 89 83 L 70 88 L 44 88 Z" fill="currentColor"/>
<path d="M 83 52 L 112 33 L 129 26 L 126 25 Z" fill="currentColor"/>
<path d="M 193 52 L 178 45 L 156 46 L 136 54 L 111 72 L 89 83 L 70 88 L 44 88 Z" fill="currentColor"/>
<path d="M 81 53 L 112 33 L 129 26 L 126 25 Z" fill="currentColor"/>
<path d="M 185 53 L 194 52 L 178 45 L 156 46 L 136 54 L 111 72 L 89 83 L 70 88 L 44 88 Z" fill="currentColor"/>
<path d="M 257 53 L 249 53 L 249 88 L 258 88 L 258 53 Z" fill="currentColor"/>
<path d="M 330 53 L 316 52 L 307 60 L 307 81 L 318 89 L 337 88 L 337 82 L 322 83 L 315 78 L 315 73 L 339 73 L 338 60 L 331 53 Z" fill="currentColor"/>
<path d="M 420 53 L 396 54 L 396 102 L 404 102 L 404 88 L 418 89 L 426 85 L 429 78 L 429 62 L 421 53 Z" fill="currentColor"/>
<path d="M 457 53 L 443 52 L 435 59 L 439 70 L 455 78 L 452 83 L 436 82 L 435 87 L 440 89 L 453 89 L 461 85 L 462 73 L 443 63 L 445 58 L 460 59 L 461 53 L 458 53 Z" fill="currentColor"/>
<path d="M 80 54 L 112 33 L 129 26 L 126 25 Z" fill="currentColor"/>
<path d="M 181 54 L 194 53 L 186 47 L 156 46 L 136 54 L 111 72 L 89 83 L 70 88 L 44 88 Z" fill="currentColor"/>
<path d="M 78 55 L 112 33 L 129 26 L 126 25 Z" fill="currentColor"/>
<path d="M 177 55 L 194 53 L 186 47 L 156 46 L 136 54 L 111 72 L 89 83 L 70 88 L 44 88 Z" fill="currentColor"/>
<path d="M 76 56 L 112 33 L 129 26 L 126 25 Z" fill="currentColor"/>
<path d="M 175 56 L 194 53 L 192 50 L 178 45 L 156 46 L 136 54 L 111 72 L 89 83 L 70 88 L 44 88 Z" fill="currentColor"/>
<path d="M 74 57 L 112 33 L 129 26 L 126 25 Z" fill="currentColor"/>
<path d="M 173 57 L 194 53 L 192 50 L 178 45 L 156 46 L 136 54 L 111 72 L 89 83 L 70 88 L 44 88 Z" fill="currentColor"/>
<path d="M 72 58 L 112 33 L 129 26 L 126 25 Z" fill="currentColor"/>
<path d="M 171 58 L 194 53 L 192 50 L 178 45 L 156 46 L 136 54 L 111 72 L 89 83 L 70 88 L 44 88 Z" fill="currentColor"/>
<path d="M 278 58 L 290 59 L 290 82 L 285 83 L 274 79 L 273 66 L 278 59 Z" fill="currentColor"/>
<path d="M 319 58 L 327 58 L 331 65 L 314 67 L 315 61 L 319 59 Z" fill="currentColor"/>
<path d="M 407 58 L 416 58 L 421 63 L 420 80 L 416 83 L 407 83 L 404 82 L 404 59 L 407 59 Z" fill="currentColor"/>
<path d="M 70 59 L 90 49 L 112 33 L 129 26 L 126 25 Z" fill="currentColor"/>
<path d="M 169 59 L 194 52 L 178 45 L 156 46 L 136 54 L 111 72 L 89 83 L 70 88 L 44 88 Z" fill="currentColor"/>
<path d="M 13 60 L 34 67 L 56 65 L 80 55 L 112 33 L 129 26 L 126 25 Z" fill="currentColor"/>
<path d="M 167 60 L 194 52 L 178 45 L 156 46 L 136 54 L 111 72 L 89 83 L 70 88 L 44 88 Z" fill="currentColor"/>
<path d="M 166 61 L 177 55 L 194 52 L 178 45 L 156 46 L 136 54 L 111 72 L 89 83 L 70 88 L 44 88 Z" fill="currentColor"/>
<path d="M 164 62 L 177 55 L 194 52 L 178 45 L 156 46 L 136 54 L 111 72 L 89 83 L 70 88 L 44 88 Z" fill="currentColor"/>
<path d="M 162 63 L 177 55 L 194 52 L 178 45 L 156 46 L 136 54 L 111 72 L 89 83 L 70 88 L 44 88 Z" fill="currentColor"/>
<path d="M 161 64 L 177 55 L 194 52 L 178 45 L 156 46 L 136 54 L 111 72 L 89 83 L 70 88 L 44 88 Z" fill="currentColor"/>
<path d="M 159 65 L 177 55 L 194 52 L 178 45 L 156 46 L 136 54 L 111 72 L 89 83 L 70 88 L 44 88 Z" fill="currentColor"/>
<path d="M 158 66 L 177 55 L 194 52 L 178 45 L 156 46 L 136 54 L 111 72 L 89 83 L 70 88 L 44 88 Z" fill="currentColor"/>
<path d="M 157 67 L 177 55 L 194 52 L 178 45 L 156 46 L 136 54 L 111 72 L 89 83 L 70 88 L 44 88 Z" fill="currentColor"/>
<path d="M 156 68 L 177 55 L 194 53 L 178 45 L 156 46 L 136 54 L 111 72 L 89 83 L 70 88 L 44 88 Z" fill="currentColor"/>
<path d="M 154 69 L 177 55 L 194 53 L 178 45 L 156 46 L 136 54 L 111 72 L 89 83 L 70 88 L 44 88 Z" fill="currentColor"/>
<path d="M 153 70 L 177 55 L 194 53 L 186 47 L 162 45 L 136 54 L 111 72 L 89 83 L 70 88 L 44 88 Z" fill="currentColor"/>
<path d="M 152 71 L 177 55 L 194 53 L 186 47 L 162 45 L 136 54 L 111 72 L 89 83 L 70 88 L 44 88 Z" fill="currentColor"/>
<path d="M 150 72 L 177 55 L 194 53 L 186 47 L 162 45 L 136 54 L 111 72 L 89 83 L 70 88 L 44 88 Z" fill="currentColor"/>
<path d="M 149 73 L 177 55 L 194 53 L 186 47 L 162 45 L 136 54 L 111 72 L 89 83 L 70 88 L 44 88 Z" fill="currentColor"/>
<path d="M 148 74 L 177 55 L 194 53 L 186 47 L 162 45 L 136 54 L 111 72 L 89 83 L 70 88 L 44 88 Z" fill="currentColor"/>
<path d="M 146 75 L 177 55 L 194 53 L 186 47 L 162 45 L 136 54 L 111 72 L 89 83 L 70 88 L 44 88 Z" fill="currentColor"/>
<path d="M 145 76 L 177 55 L 194 53 L 186 47 L 162 45 L 136 54 L 111 72 L 89 83 L 70 88 L 44 88 Z" fill="currentColor"/>
<path d="M 144 77 L 177 55 L 194 53 L 186 47 L 162 45 L 136 54 L 111 72 L 89 83 L 70 88 L 44 88 Z" fill="currentColor"/>
<path d="M 142 78 L 177 55 L 194 53 L 186 47 L 162 45 L 136 54 L 111 72 L 89 83 L 70 88 L 44 88 Z" fill="currentColor"/>
<path d="M 141 79 L 177 55 L 194 53 L 186 47 L 162 45 L 136 54 L 111 72 L 89 83 L 70 88 L 44 88 Z" fill="currentColor"/>
<path d="M 139 80 L 177 55 L 194 53 L 186 47 L 162 45 L 136 54 L 111 72 L 89 83 L 70 88 L 44 88 Z" fill="currentColor"/>
<path d="M 138 81 L 167 60 L 177 55 L 194 53 L 186 47 L 162 45 L 136 54 L 111 72 L 89 83 L 70 88 L 44 88 Z" fill="currentColor"/>
<path d="M 136 82 L 167 60 L 177 55 L 194 53 L 186 47 L 162 45 L 136 54 L 111 72 L 89 83 L 70 88 L 44 88 Z" fill="currentColor"/>
<path d="M 134 83 L 167 60 L 177 55 L 194 53 L 186 47 L 162 45 L 136 54 L 111 72 L 89 83 L 70 88 L 44 88 Z" fill="currentColor"/>
<path d="M 133 84 L 167 60 L 177 55 L 194 53 L 186 47 L 162 45 L 136 54 L 111 72 L 89 83 L 70 88 L 44 88 Z" fill="currentColor"/>
<path d="M 131 85 L 167 60 L 177 55 L 194 53 L 186 47 L 162 45 L 136 54 L 111 72 L 89 83 L 70 88 L 44 88 Z" fill="currentColor"/>
<path d="M 129 86 L 167 60 L 177 55 L 194 53 L 186 47 L 162 45 L 136 54 L 111 72 L 89 83 L 70 88 L 44 88 Z" fill="currentColor"/>
<path d="M 127 87 L 144 78 L 167 60 L 177 55 L 194 53 L 186 47 L 162 45 L 136 54 L 111 72 L 89 83 L 70 88 L 44 88 Z" fill="currentColor"/>
<path d="M 125 88 L 138 82 L 167 60 L 177 55 L 194 53 L 178 45 L 146 49 L 106 75 L 83 85 L 59 89 L 44 88 Z" fill="currentColor"/>
<path d="M 45 89 L 72 97 L 105 96 L 133 85 L 177 55 L 194 52 L 178 45 L 156 46 L 136 54 L 111 72 L 89 83 L 70 88 L 44 88 Z" fill="currentColor"/>
  </g>
</svg>